<svg width="80" height="39" viewBox="0 0 80 39" fill="none" xmlns="http://www.w3.org/2000/svg">
<path id="Vector 52" d="M2.13832 32.5069C3.89554 30.3771 8.14386 26.5735 10.1364 25.5916C12.9782 24.1912 15.5897 24.5359 19.4826 28.5924C23.3755 32.6489 24.0157 34.5089 24.7713 35.4943C25.5269 36.4797 30.4063 39.7723 31.5547 31.0715C32.5957 23.1846 33.6229 15.4025 33.8526 13.6615C34.0824 11.9205 35.5215 7.72767 41.1613 11.9692C44.9677 14.8318 51.8799 19.132 54.1039 14.5629C55.3191 12.0665 56.7641 7.82895 56.9936 6.08999C57.3572 3.3351 60.4092 0.342679 65.2874 3.6441C67.1271 4.88909 73.7847 8.60317 77.7705 9.71951" stroke="#D975BB" stroke-width="3" stroke-linecap="round"/>
</svg>
