<svg width="76" height="27" viewBox="0 0 76 27" fill="none" xmlns="http://www.w3.org/2000/svg">
<path id="Vector 51" d="M2 25.1826C5.82301 25.1826 14.2336 23.9101 17.292 21.3614C21.115 18.1756 23.0299 16.9013 25.5752 19.4481C28.7611 22.6358 30.0354 22.6339 32.5841 19.4481C35.1327 16.2622 35.1327 15.6251 35.7699 14.9879C36.4071 14.3507 37.9832 12.7393 40.8673 15.6251C44.0531 18.8128 45.3274 18.8119 47.2389 14.9889C49.1504 11.1659 49.7876 7.34288 51.6991 4.15704C53.6106 0.971199 56.7965 1.60837 59.3451 4.15704C61.8938 6.70571 65.7168 11.8039 66.354 12.4411C66.9912 13.0783 70.177 16.9013 74 12.4411" stroke="#7056B2" stroke-width="3" stroke-linecap="round" stroke-linejoin="round"/>
</svg>
