<svg width="28" height="28" viewBox="0 0 28 28" fill="none" xmlns="http://www.w3.org/2000/svg">
<g id="eva:swap-fill">
<path id="Vector" d="M4.66667 10.5H19.8333L17.9667 11.9C17.8441 11.9919 17.7408 12.1071 17.6628 12.2389C17.5847 12.3708 17.5334 12.5167 17.5117 12.6683C17.4901 12.82 17.4985 12.9745 17.5365 13.1229C17.5745 13.2713 17.6414 13.4108 17.7333 13.5333C17.842 13.6782 17.9829 13.7958 18.1449 13.8768C18.3069 13.9578 18.4855 14 18.6667 14C18.9191 14 19.1647 13.9181 19.3667 13.7667L24.0333 10.2667C24.176 10.1578 24.2917 10.0175 24.3713 9.85659C24.4509 9.69573 24.4923 9.51866 24.4923 9.33917C24.4923 9.15969 24.4509 8.98262 24.3713 8.82175C24.2917 8.66088 24.176 8.52055 24.0333 8.41167L19.53 4.91167C19.2856 4.72138 18.9755 4.63599 18.6681 4.67427C18.3607 4.71256 18.0811 4.8714 17.8908 5.11584C17.7005 5.36028 17.6151 5.6703 17.6534 5.97771C17.6917 6.28511 17.8506 6.56471 18.095 6.75501L19.9267 8.16667H4.66667C4.35725 8.16667 4.0605 8.28959 3.84171 8.50838C3.62292 8.72718 3.5 9.02392 3.5 9.33334C3.5 9.64276 3.62292 9.93951 3.84171 10.1583C4.0605 10.3771 4.35725 10.5 4.66667 10.5ZM23.3333 18.6667H8.16667L10.0333 17.2667C10.2809 17.081 10.4445 16.8046 10.4883 16.4983C10.532 16.192 10.4523 15.8809 10.2667 15.6333C10.081 15.3858 9.80463 15.2222 9.49832 15.1784C9.19202 15.1346 8.88087 15.2144 8.63333 15.4L3.96667 18.9C3.82398 19.0089 3.70833 19.1492 3.62873 19.3101C3.54912 19.471 3.50771 19.648 3.50771 19.8275C3.50771 20.007 3.54912 20.1841 3.62873 20.3449C3.70833 20.5058 3.82398 20.6461 3.96667 20.755L8.47 24.255C8.67364 24.4131 8.92389 24.4992 9.18167 24.5C9.35984 24.4996 9.53554 24.4583 9.69531 24.3795C9.85507 24.3006 9.99465 24.1862 10.1033 24.045C10.2928 23.8018 10.3783 23.4935 10.3411 23.1874C10.304 22.8814 10.1472 22.6025 9.905 22.4117L8.07333 21H23.3333C23.6428 21 23.9395 20.8771 24.1583 20.6583C24.3771 20.4395 24.5 20.1428 24.5 19.8333C24.5 19.5239 24.3771 19.2272 24.1583 19.0084C23.9395 18.7896 23.6428 18.6667 23.3333 18.6667Z" fill="white"/>
</g>
</svg>
